<svg xmlns="http://www.w3.org/2000/svg" width="50" height="50" fill="none" viewBox="0 0 50 50"><circle cx="25" cy="25" r="25" fill="#283994"/><path fill="#fff" d="m27 34.0332-.0126 2.7782H23v-3.8597h2.8842c.0252 0 .0441.0099.0657.0125.1234.0137.2443.0439.3596.09.0378.0125.0746.0287.1097.044.009.0063.0189.0099.0279.0162.1885.0838.3424.2298.436.4136.0063.0099.009.0153.0126.0215.0179.0374.0326.0762.0441.116.0096.0266.0168.054.0215.0818.0245.0934.0375.1894.0387.2859ZM26.9874 13.5252v16.2464c0 .2535-.116.4729-.3542.6617-.2462.1905-.5511.2891-.8622.2787H23V13.0001h3.3266c.1671-.0032.3304.0497.4639.1502.0611.0415.111.0974.1454.1628.0343.0654.052.1382.0515.2121Z"/></svg>