<svg xmlns="http://www.w3.org/2000/svg" width="50" height="50" fill="none" viewBox="0 0 50 50"><circle cx="25" cy="25" r="25" fill="#4B22CC"/><g fill="#E3ED5D" clip-path="url(#a)"><path d="M27.2473 30.5565s-4.1357.2399-4.1357-2.9685v-8.1809c0-.78-.1525-1.5524-.4488-2.273-.2964-.7207-.7307-1.3754-1.2781-1.9269-.5475-.5516-1.1975-.989-1.9128-1.2874-.7153-.2984-1.482-.4519-2.2562-.4518H14v16.306c0 1.752.6908 3.4321 1.9204 4.671 1.2296 1.2388 2.8973 1.9347 4.6362 1.9347h.009c.4449.0423.8927.0423 1.3376 0h7.8305c1.7619 0 3.4517-.7051 4.6975-1.9604 1.2459-1.2552 1.9458-2.9576 1.9458-4.7327v-4.057h-9.1085l-.0212 4.9269Zm.8069-4.1352h7.53v3.2603c-.0024 1.5624-.6196 3.0603-1.7162 4.1652-1.0967 1.1048-2.5834 1.7267-4.1343 1.7291h-3.71c.3953-.3193.7415-.6961 1.0269-1.1179.8795-1.309.9926-2.7734.9926-3.9004l.011-4.1363Z"/><path d="M32.5664 13.468c-1.4062 0-2.7549.5627-3.7493 1.5644-.9944 1.0017-1.5532 2.3604-1.5534 3.7771v3.2033h9.1115V13.468h-3.8088Z"/></g><defs><clipPath id="a"><path fill="#fff" d="M14 13h23v24H14z"/></clipPath></defs></svg>