<svg xmlns="http://www.w3.org/2000/svg" width="24" height="24" fill="none" viewBox="0 0 24 24"><g fill="#000" clip-path="url(#a)"><path d="M12 0C5.38028 0 0 5.38028 0 12c0 6.6197 5.38028 12 12 12 6.6197 0 12-5.3803 12-12 0-6.61972-5.3803-12-12-12Zm0 22.7887c-5.94366 0-10.78873-4.845-10.78873-10.7887C1.21127 6.05634 6.05634 1.21127 12 1.21127c5.9437 0 10.7887 4.84507 10.7887 10.78873 0 5.9437-4.845 10.7887-10.7887 10.7887Z"/><path d="m12.8451 11.9437 3.5212-3.52117c.2253-.22535.2253-.61972 0-.84507-.2254-.22535-.6198-.22535-.8451 0l-3.5211 3.52114-3.52117-3.52114c-.22535-.22535-.61972-.22535-.84507 0-.22535.22535-.22535.61972 0 .84507L11.155 11.9437l-3.52114 3.4929c-.22535.2254-.22535.6197 0 .8451.11267.1127.28169.169.42253.169.14085 0 .30986-.0563.42254-.169l3.52117-3.5211 3.5211 3.5211c.1127.1127.2817.169.4225.169.1409 0 .3099-.0563.4226-.169.2253-.2254.2253-.6197 0-.8451l-3.5212-3.4929Z"/></g><defs><clipPath id="a"><path fill="#fff" d="M0 0h24v24H0z"/></clipPath></defs></svg>