<svg xmlns="http://www.w3.org/2000/svg" width="30" height="30" fill="none" viewBox="0 0 30 30"><path fill="#F9B744" fill-rule="evenodd" d="M15.6098 5.70675c.3187.37052 1.2308 1.5366 2.0273 2.59066 1.438 1.90409 1.4686 1.92419 4.5843 2.99529 2.0953.7204 3.1673 1.2416 3.2284 1.569.0503.2699-.7989 1.507-1.8868 2.7494l-1.9781 2.2591.3589 3.187c.5002 4.446.4711 4.4697-3.8733 3.1604l-3.2724-.9864-2.874.9577c-4.11533 1.3709-4.08627 1.3925-4.08627-3.04v-3.6127l-1.96434-2.0823c-1.13494-1.203-1.92481-2.2933-1.87089-2.5823.0635-.3397 1.09809-.8456 3.22597-1.5774l3.13283-1.0771 1.4437-2.06796c2.4553-3.51652 2.73-3.69294 3.8047-2.44239Zm-4.0296 8.31385c-.6248.6904-.3903 1.1715.2941.6033.3682-.3056.5449-.3056.913 0 .6844.5682.919.0871.2942-.6033-.2993-.3304-.6369-.6009-.7507-.6009-.1138 0-.4514.2705-.7506.6009Zm5.0921 0c-.6249.6904-.3903 1.1715.2941.6033.3645-.3026.547-.3038.9058-.006.6077.5044.5895-.1169-.0213-.7276-.5841-.5838-.5263-.5904-1.1786.1303Zm-3.4429 3.0969c0 .5727.9897 1.3943 1.6792 1.3943.7674 0 1.9152-.818 1.9152-1.365 0-.3286-.4307-.4322-1.7972-.4322-1.3056 0-1.7972.1102-1.7972.4029Z" clip-rule="evenodd"/></svg>