<svg xmlns="http://www.w3.org/2000/svg" width="13" height="13" fill="none" viewBox="0 0 13 13"><path fill="#fff" d="M12.0923 2.1253 7.2302.0940228C7.10675.0424537 6.89694 0 6.76323 0c-.13451 0-.34313.0424537-.46747.0940228L1.43391 2.1253c-.453543.18764-.749828.63198-.749828 1.10171C.684082 9.78042 5.47528 13 6.75918 13c1.29656 0 6.08012-3.25512 6.08012-9.77299 0-.46973-.2962-.91407-.747-1.10171ZM9.19277 5.07802c0 .14043-.04814.28158-.1464.3966L6.61532 8.31841c-.17015.20008-.39553.18993-.46137.18993-.16065 0-.31578-.06427-.42974-.17853L4.50869 7.11105c-.11978-.0957-.17803-.25313-.17803-.43086 0-.32475.26083-.60939.60777-.60939.15551 0 .31097.05952.42973.17853l.75186.75386 2.00384-2.34461c.12052-.14046.29072-.21232.4619-.21232.4652.02237.60701.44386.60701.63176Z"/></svg>