<svg xmlns="http://www.w3.org/2000/svg" width="12" height="12" fill="none" viewBox="0 0 12 12"><g clip-path="url(#a)"><path fill="#fff" d="M5.46234.0145597C4.30186.127248 3.23066.554523 2.291 1.27761 1.83292 1.62976 1.23858 2.2918.89561 2.83176c-.147996.23242-.43694.82404-.540302 1.10576C.2402 4.2521.115695 4.73572.0546175 5.109c-.0728233.4578-.0728233 1.32644 0 1.78423.1057115.64796.2725005 1.16914.5567465 1.74902.310087.63152.631916 1.07992 1.148726 1.59875.51916.5165.96785.8381 1.59977 1.148.58024.2841 1.10175.4508 1.75011.5564.45808.0728 1.32726.0728 1.78535 0 .64836-.1056 1.16987-.2723 1.75011-.5564.63191-.3099 1.0806-.6315 1.59977-1.148.5168-.51883.8386-.96723 1.1487-1.59875.2067-.42024.3101-.69491.4229-1.11749.148-.56345.1832-.87099.1832-1.52364 0-.65265-.0352-.9602-.1832-1.52364-.1128-.42258-.2162-.69726-.4229-1.11749-.3101-.63152-.6319-1.07993-1.1487-1.59876-.51917-.51649-.96786-.838122-1.59977-1.148015-.57789-.284068-1.1135-.4531-1.73837-.5517021C6.56174.00751686 5.79122-.0183077 5.46234.0145597Z"/><path fill="#711BF2" d="M9.14801 3.42333c.11745.03756.29834.21364.34767.34276.05638.15025.05168.34511-.0141.48127-.07517.1526-3.94185 3.98869-4.11569 4.08495-.16914.08921-.36647.08921-.53561-.00235-.09866-.05165-1.87931-1.64572-2.18235-1.95326-.1198-.11973-.17853-.26529-.17618-.43432.0047-.3545.26545-.59396.61782-.57048.08457.00704.18793.02817.22787.05165.06343.03051 1.24974 1.0987 1.635 1.46729l.11041.10799 1.75716-1.75371C7.7855 4.28258 8.6077 3.47733 8.64999 3.4562c.16209-.08217.30774-.09156.49802-.03287Z"/></g><defs><clipPath id="a"><path fill="#fff" d="M0 12h12V0H0z"/></clipPath></defs></svg>