<svg xmlns="http://www.w3.org/2000/svg" width="20" height="20" fill="none" viewBox="0 0 20 20"><path fill="red" d="M9.25777.0203495C7.4286.192324 5.88476.723877 4.48943 1.658c-1.50476 1.00448-2.66949 2.33336-3.459 3.94366C.373802 6.93054.0611237 8.18516.00640496 9.66647-.0522222 11.3315.291724 12.9183 1.03433 14.4114c.51983 1.0513 1.0592 1.794 1.90734 2.646.86378.8599 1.6103 1.3953 2.66168 1.9113.73479.3595 1.20772.5354 1.95424.723 2.33726.5863 4.72531.3322 6.85551-.727 1.0709-.5315 1.7705-1.0396 2.646-1.9112.8481-.8481 1.3836-1.5908 1.9073-2.6421 1.2078-2.4272 1.368-5.20222.4495-7.78963-.1837-.51983-.6371-1.45786-.9185-1.89952-.8247-1.30153-2.0988-2.55224-3.3456-3.29485C13.5376.465916 11.7475-.022644 9.92221.0008068c-.28922 0-.59018.0117264-.66444.0195427ZM10.9775 1.47821c3.9319.47684 7.0001 3.502 7.5277 7.42611.1134.85596.0547 2.09498-.1368 2.95868-.7973 3.5528-3.7521 6.2145-7.3909 6.6562-.4768.0586-1.55557.0469-2.05586-.0157-3.92802-.5198-6.9649-3.5879-7.44174-7.5277-.05081-.426-.05081-1.5282 0-1.95423.47293-3.91238 3.49027-6.98445 7.38703-7.52381.45729-.06254 1.66497-.07427 2.11057-.01955Z"/><path fill="red" d="M6.42133 6.04224c-.34785.12099-.53311.46883-.44237.82046.03781.14367.2193.34028 1.59934 1.72032l1.55774 1.56148-1.55774 1.5578c-1.3687 1.3763-1.56153 1.5804-1.59934 1.7241-.13233.5066.33272.9717.83937.8394.14367-.0378.34784-.2307 1.7241-1.5994l1.55777-1.5577 1.5615 1.5577c1.3725 1.3687 1.5767 1.5616 1.7203 1.5994.5067.1323.9717-.3328.8394-.8394-.0378-.1437-.2306-.3478-1.5993-1.7241l-1.5578-1.5578 1.5578-1.56148c1.3687-1.37247 1.5615-1.57665 1.5993-1.72032.1323-.50665-.3327-.9717-.8394-.83937-.1436.03781-.3478.23064-1.7203 1.59934l-1.5615 1.55774-1.55777-1.55774C7.21911 6.30312 6.95822 6.06114 6.82967 6.02711c-.18905-.05293-.23064-.04915-.40834.01513Z"/></svg>