<svg xmlns="http://www.w3.org/2000/svg" width="20" height="20" fill="none" viewBox="0 0 20 20"><path fill="#fff" d="M9.24735.0195866C7.79655.156374 6.69379.465122 5.48936 1.07089c-1.58766.79336-3.05801 2.14168-4.0239 3.68932C.76548 5.87796.257115 7.32008.0498588 8.7661c-.0664784.46117-.0664784 2.001 0 2.4622C.2141 12.3812.519118 13.3895.996199 14.3548c.535741 1.0943 1.063651 1.829 1.931781 2.7006.86422.8598 1.61113 1.3952 2.66305 1.9111.73517.3595 1.20835.5354 1.95525.723 1.95525.4924 3.91832.3986 5.82662-.2775.5866-.2071 1.5955-.7152 2.1117-1.0591 1.181-.7895 2.2407-1.8759 3.0072-3.0797.2815-.4416.7351-1.3796.9189-1.8993.919-2.5873.7587-5.36208-.4497-7.78906-.4849-.97705-1.0284-1.74696-1.791-2.5325-.8368-.86762-1.6815-1.4812-2.7804-2.02444-1.1575-.570596-2.2368-.879342-3.5194-.996589-.3989-.03517338-1.30219-.0429897-1.62285-.0117244Z"/><path fill="#8072FC" d="M13.8261 6.73158c-.0528.02269-1.38 1.32711-2.9485 2.90376L8.01967 12.4975l-1.06324-1.0662c-1.14997-1.1494-1.15751-1.1532-1.48931-1.0889-.18474.034-.41097.2609-.4449.4461-.0641.3403-.08672.3138 1.36865 1.7733 1.45537 1.4594 1.4252 1.4367 1.76831 1.3725.12819-.0227.49769-.3781 3.28402-3.1685 2.2811-2.28743 3.1482-3.17973 3.1784-3.27425.083-.25333-.0075-.52555-.2375-.69569-.1169-.08697-.4185-.12099-.558-.06428Z"/></svg>