<svg xmlns="http://www.w3.org/2000/svg" xmlns:xlink="http://www.w3.org/1999/xlink" fill="#000000" height="800px" width="800px" id="Layer_1" viewBox="0 0 512 512" xml:space="preserve"><g>	<g>		<g>			<path d="M296.166,36.634c-3.337-3.337-8.73-3.337-12.066,0s-3.337,8.73,0,12.066l25.6,25.6c1.664,1.664,3.849,2.5,6.033,2.5    c2.185,0,4.369-0.836,6.033-2.5c3.337-3.337,3.337-8.73,0-12.066L296.166,36.634z"></path>			<path d="M356.727,155.375c-1.34-10.069-3.439-20.002-6.468-29.687c-1.399-4.497-6.204-6.972-10.692-5.598    c-4.497,1.408-6.997,6.195-5.598,10.692c4.89,15.616,7.364,31.906,7.364,48.418c0,71.228-45.611,133.402-113.502,154.718    c-4.497,1.408-6.997,6.195-5.581,10.701c1.143,3.644,4.506,5.973,8.141,5.973c0.845,0,1.707-0.128,2.56-0.392    c66.014-20.727,112.93-76.416,123.273-143.113C416.35,217.66,460.8,270.268,460.8,332.8c0,70.579-57.421,128-128,128    s-128-57.421-128-128c0-60.365,41.916-112.179,99.209-124.996c-9.139,40.312-37.316,74.138-76.894,90.129    c-4.369,1.766-6.485,6.733-4.719,11.102c1.34,3.328,4.54,5.342,7.919,5.342c1.058,0,2.142-0.205,3.191-0.623    c55.134-22.272,90.76-75.085,90.76-134.554c0-18.867-3.567-37.222-10.624-54.562c-1.775-4.361-6.75-6.477-11.11-4.693    c-4.369,1.775-6.468,6.75-4.693,11.119c3.285,8.073,5.649,16.418,7.211,24.934C218.146,169.079,153.6,243.49,153.6,332.8    c0,98.816,80.384,179.2,179.2,179.2S512,431.616,512,332.8C512,242.227,445.679,167.202,356.727,155.375z M332.8,494.933    c-89.404,0-162.133-72.73-162.133-162.133c0-80.555,58.018-147.721,136.235-159.838c0.102,2.082,0.299,4.139,0.299,6.238    c0,3.635-0.188,7.236-0.486,10.812c-68.25,12.015-118.98,72.175-118.98,142.788c0,79.992,65.075,145.067,145.067,145.067    S477.867,412.792,477.867,332.8c0-71.287-51.038-131.191-119.902-142.711c0.213-3.61,0.435-7.228,0.435-10.889    c0-2.142-0.171-4.258-0.239-6.391c78.601,12.254,136.772,79.3,136.772,159.991C494.933,422.204,422.204,494.933,332.8,494.933z"></path>			<path d="M130.56,333.909C62.677,312.602,17.067,250.428,17.067,179.2c0-89.404,72.73-162.133,162.133-162.133    c16.606,0,32.981,2.5,48.657,7.424c4.471,1.417,9.284-1.084,10.701-5.581c1.417-4.497-1.084-9.293-5.581-10.701    C215.637,2.765,197.547,0,179.2,0C80.384,0,0,80.384,0,179.2c0,78.729,50.415,147.439,125.457,171    c0.845,0.264,1.707,0.392,2.551,0.392c3.635,0,6.997-2.338,8.141-5.982C137.566,340.113,135.066,335.326,130.56,333.909z"></path>			<path d="M179.2,51.2c16.64,0,32.819,3.14,48.094,9.344c4.361,1.766,9.344-0.333,11.119-4.702    c1.766-4.369-0.333-9.344-4.702-11.119c-17.323-7.023-35.669-10.59-54.511-10.59c-79.991,0-145.067,65.075-145.067,145.067    c0,59.375,35.541,112.162,90.556,134.477c1.05,0.427,2.142,0.631,3.208,0.631c3.371,0,6.562-2.014,7.91-5.325    c1.775-4.369-0.333-9.344-4.702-11.119C82.569,278.17,51.2,231.586,51.2,179.2C51.2,108.621,108.621,51.2,179.2,51.2z"></path>			<path d="M264.533,102.4h85.333c4.71,0,8.533-3.823,8.533-8.533V59.733c0-2.261-0.905-4.429-2.5-6.033L304.7,2.5    c-1.604-1.596-3.772-2.5-6.033-2.5h-34.133C259.823,0,256,3.823,256,8.533v85.333C256,98.577,259.823,102.4,264.533,102.4z     M273.067,17.067h22.067l46.2,46.199v22.067h-68.267V17.067z"></path>		</g>	</g></g></svg>