<svg xmlns="http://www.w3.org/2000/svg" width="16" height="17" fill="none"><g clip-path="url(#a)"><path fill="red" d="M0 8.49995c0 4.41125 3.58875 7.99995 7.99995 7.99995 4.41125 0 7.99995-3.5887 7.99995-7.99995C15.9999 4.08875 12.4113.5 7.99995.5 3.58865.5 0 4.08875 0 8.49995Zm7.99995 6.56935c-3.62232 0-6.56926-2.9469-6.56926-6.56935 0-1.55392.54347-2.9827 1.44891-4.10875l9.2291 9.2291c-1.126.9054-2.55473 1.449-4.10875 1.449Zm6.56925-6.56935c0 1.55395-.5435 2.98275-1.4488 4.10875L3.8912 3.3796c1.12605-.90544 2.55483-1.44891 4.10875-1.44891 3.62235 0 6.56925 2.94694 6.56925 6.56926Z"/></g><defs><clipPath id="a"><path fill="#fff" d="M0 .5h16v16H0z"/></clipPath></defs></svg>