<svg xmlns="http://www.w3.org/2000/svg" width="20" height="20" fill="none" viewBox="0 0 20 20"><path fill="red" d="M8.73536 1.9375c.23047-.23047.49609-.38671.80078-.47265.28906-.08203.80466-.05469 1.09766.05859.2539.09375.5742.32031.7383.51953.1289.15625 8.2695 13.64453 8.4336 13.97263.4687.9375.0273 2.0664-.9649 2.4688l-.2265.0898H1.3877l-.22656-.0898c-.980468-.3985-1.433593-1.5235-.976562-2.4492.054688-.1094 1.953122-3.2774 4.222652-7.04692 3.24219-5.375 4.17188-6.89062 4.32813-7.05078Z"/><path fill="#fff" d="M9.64844 6.82024c-.20703.06641-.31641.14844-.42578.33203-.07422.1211-.08204.19532-.08204.73828 0 .33204.02735 1.21875.0586 1.97266.03516.74999.07422 1.68749.08984 2.07809.03125.7774.03907.8047.30078.9414.1836.0977.62496.086.82816-.0234.2539-.1328.2734-.1953.3047-1.1016.0117-.4414.0507-1.3359.082-1.99215.0664-1.45312.0703-2.43359.0117-2.55078-.1953-.3789-.6914-.54687-1.16796-.39453ZM9.79296 13.8322c-.56641.1368-.85547.7813-.58985 1.3164.21485.4375.72266.625 1.14849.4336.375-.1679.5625-.457.5625-.8554 0-.2813-.086-.4883-.2774-.6719-.2031-.1953-.5664-.2891-.84374-.2227Z"/></svg>