<svg xmlns="http://www.w3.org/2000/svg" width="24" height="24" fill="none" viewBox="0 0 24 24"><rect width="23" height="23" x=".5" y=".5" fill="#fff" rx="11.5"/><rect width="23" height="23" x=".5" y=".5" stroke="#1717CC" rx="11.5"/><g stroke="#1717CC" stroke-linecap="round" stroke-linejoin="round" clip-path="url(#a)"><path d="M12 13.75c.9665 0 1.75-.7835 1.75-1.75s-.7835-1.75-1.75-1.75-1.75.7835-1.75 1.75.7835 1.75 1.75 1.75Z"/><path d="M16.3163 13.7507c-.0776.1759-.1008.3711-.0665.5603.0343.1892.1246.3638.259.5013l.035.035c.1085.1084.1946.237.2533.3787.0587.1416.0889.2934.0889.4467 0 .1534-.0302.3052-.0889.4468-.0587.1416-.1448.2703-.2533.3787-.1083.1084-.237.1945-.3786.2532-.1416.0587-.2935.0889-.4468.0889s-.3051-.0302-.4467-.0889c-.1417-.0587-.2703-.1448-.3787-.2532l-.035-.035c-.1375-.1345-.3121-.2247-.5013-.2591-.1892-.0343-.3844-.0111-.5604.0666-.1725.0739-.3196.1967-.4233.3532-.1036.1565-.1592.3399-.16.5276v.0992c0 .3094-.1229.6061-.3417.8249s-.5155.3417-.825.3417c-.3094 0-.6061-.1229-.8249-.3417s-.3417-.5155-.3417-.8249v-.0525c-.0045-.1931-.067-.3804-.1794-.5375-.1123-.1571-.2694-.2767-.4506-.3434-.176-.0776-.37114-.1008-.56037-.0665s-.36384.1245-.50132.259l-.035.035c-.10835.1085-.23702.1945-.37866.2533-.14163.0587-.29344.0889-.44676.0889s-.30513-.0302-.44676-.0889c-.14163-.0588-.2703-.1448-.37866-.2533-.10847-.1083-.19452-.237-.25323-.3786-.05871-.1417-.08893-.2935-.08893-.4468s.03022-.3051.08893-.4468c.05871-.1416.14476-.2703.25323-.3786l.035-.035c.13448-.1375.2247-.3121.25901-.5013.03431-.1893.01114-.3844-.06651-.5604-.07394-.1725-.19672-.3197-.35322-.4233-.15651-.1036-.3399-.1593-.52761-.16h-.09917c-.30941 0-.60616-.1229-.82495-.3417-.2188-.2188-.34171-.5156-.34171-.825s.12291-.6061.34171-.8249c.21879-.2188.51554-.3417.82495-.3417h.0525c.19308-.0046.38034-.0671.53743-.1794.15709-.1124.27674-.2694.34341-.4506.07765-.176.10081-.37116.0665-.56039-.03431-.18923-.12452-.36385-.259-.50133l-.035-.035c-.10847-.10835-.19453-.23702-.25324-.37865-.05871-.14163-.08893-.29344-.08893-.44676s.03022-.30514.08893-.44677c.05871-.14163.14477-.2703.25324-.37865.10835-.10847.23702-.19452.37865-.25324.14163-.05871.29345-.08893.44676-.08893.15332 0 .30514.03022.44677.08893.14163.05872.2703.14477.37865.25324l.035.035c.13748.13448.31209.22469.50132.259.18923.03431.38444.01115.56034-.0665h.0467c.1725-.07394.3197-.19673.4233-.35323.1036-.1565.1593-.33989.16-.5276v-.09917c0-.30942.1229-.60616.3417-.82496.2188-.21879.5156-.34171.825-.34171s.6061.12292.8249.34171c.2188.2188.3417.51554.3417.82496v.0525c.0008.18771.0564.3711.1601.52761.1036.1565.2507.27928.4233.35322.1759.07765.3711.10082.5603.06651.1892-.03431.3639-.12453.5013-.25901l.035-.035c.1084-.10847.2371-.19452.3787-.25323.1416-.05871.2934-.08893.4468-.08893.1533 0 .3051.03022.4467.08893.1417.05871.2703.14476.3787.25323.1084.10836.1945.23703.2532.37866.0587.14163.0889.29344.0889.44676s-.0302.30513-.0889.44676c-.0587.14164-.1448.27031-.2532.37866l-.035.035c-.1345.13748-.2247.31209-.259.50132s-.0112.38436.0665.56036v.0467c.0739.1725.1967.3196.3532.4233.1565.1036.3399.1592.5276.16h.0992c.3094 0 .6061.1229.8249.3417s.3417.5155.3417.825c0 .3094-.1229.6061-.3417.8249s-.5155.3417-.8249.3417h-.0525c-.1877.0008-.3711.0564-.5276.16-.1565.1037-.2793.2508-.3533.4234Z"/></g><defs><clipPath id="a"><path fill="#fff" d="M5 5h14v14H5z"/></clipPath></defs></svg>