<svg xmlns="http://www.w3.org/2000/svg" width="50" height="50" fill="none" viewBox="0 0 50 50"><circle cx="25" cy="25" r="25" fill="#1717CC"/><path fill="#fff" d="M26.8672 34.1123c0 1.0032-.8132 1.8164-1.8164 1.8164s-1.8164-.8132-1.8164-1.8164V21.8955c0-1.0032.8132-1.8164 1.8164-1.8164s1.8164.8132 1.8164 1.8164v12.2168ZM23.542 14.5967c-.3613.3874-.542.8794-.542 1.4762 0 .5862.1807 1.0783.542 1.4761.3613.3873.8642.581 1.5088.581.6445 0 1.1523-.1937 1.5234-.581.3711-.3978.5567-.8899.5567-1.4761 0-.5968-.1856-1.0888-.5567-1.4762-.3711-.3978-.8789-.5967-1.5234-.5967-.6446 0-1.1475.1989-1.5088.5967Z"/></svg>