<svg xmlns="http://www.w3.org/2000/svg" width="51" height="50" fill="none" viewBox="0 0 51 50"><g clip-path="url(#a)"><mask id="b" width="51" height="50" x="0" y="0" maskUnits="userSpaceOnUse" style="mask-type:luminance"><path fill="#fff" d="M.5 0h50v50H.5V0Z"/></mask><g fill="#727272" mask="url(#b)"><path d="M45.2917 50H24.4583c-2.8708 0-5.2083-2.3375-5.2083-5.2083v-8.3334c0-.575.4667-1.0416 1.0417-1.0416.575 0 1.0416.4666 1.0416 1.0416v8.3334c0 1.7229 1.4021 3.125 3.125 3.125h20.8334c1.7229 0 3.125-1.4021 3.125-3.125V23.9583c0-1.7229-1.4021-3.125-3.125-3.125H34.875c-.575 0-1.0417-.4666-1.0417-1.0416 0-.575.4667-1.0417 1.0417-1.0417h10.4167c2.8708 0 5.2083 2.3375 5.2083 5.2083v20.8334C50.5 47.6625 48.1625 50 45.2917 50ZM16.1224 31.2513h-1.0417c-.575 0-1.0416-.4667-1.0416-1.0417 0-.575.4666-1.0416 1.0416-1.0416h1.0417c.575 0 1.0417.4666 1.0417 1.0416 0 .575-.4667 1.0417-1.0417 1.0417ZM10.8729 31.25H8.76667c-.575 0-1.04167-.4667-1.04167-1.0417 0-.575.46667-1.0416 1.04167-1.0416h2.10623c.575 0 1.0417.4666 1.0417 1.0416 0 .575-.4667 1.0417-1.0417 1.0417Zm-6.30207-.1583c-.09375 0-.18958-.0125-.28541-.0396-.84375-.2396-1.62084-.6938-2.24584-1.3167-.40833-.4042-.41041-1.0646-.00416-1.4729.40625-.4063 1.06666-.4104 1.47291-.0042.375.3729.84167.6459 1.34584.7896.55416.1563.875.7333.71666 1.2875-.12916.4583-.54791.7563-1 .7563Zm-3.02916-4.9313C.966667 26.1604.5 25.6937.5 25.1187v-2.1062c0-.575.466667-1.0417 1.04167-1.0417.575 0 1.04166.4667 1.04166 1.0417v2.1062c0 .575-.46666 1.0417-1.04166 1.0417Zm0-6.3187C.966667 19.8417.5 19.375.5 18.8v-2.1063c0-.575.466667-1.0416 1.04167-1.0416.575 0 1.04166.4666 1.04166 1.0416V18.8c0 .575-.46666 1.0417-1.04166 1.0417Zm0-6.3167C.966667 13.525.5 13.0583.5 12.4833v-2.1062c0-.57502.466667-1.04168 1.04167-1.04168.575 0 1.04166.46666 1.04166 1.04168v2.1062c0 .575-.46666 1.0417-1.04166 1.0417Zm29.16663-2.1479c-.575 0-1.0416-.4667-1.0416-1.0417V8.22917c0-.575.4666-1.04167 1.0416-1.04167.575 0 1.0417.46458 1.0417 1.04167v2.10623c0 .575-.4667 1.0417-1.0417 1.0417ZM1.54167 7.20625C.966667 7.20625.5 6.73958.5 6.16458v-.95625c0-.47916.066667-.95625.195833-1.41666.15625-.55625.735417-.88334 1.285417-.71875.55417.15625.875.73125.71875 1.28541-.07708.275-.11667.56042-.11667.85v.95625c0 .575-.46666 1.04167-1.04166 1.04167ZM30.5396 5.075c-.4521 0-.8667-.29583-1-.75-.1459-.50208-.425-.96458-.8-1.33958-.4084-.40417-.4125-1.06459-.0084-1.47292.4042-.41042 1.0646-.4125 1.473-.00833.627.62083 1.0895 1.39375 1.3354 2.23541.1625.55209-.1563 1.12917-.7084 1.29167-.0979.03125-.1958.04375-.2916.04375ZM4.5375 2.25c-.45 0-.86667-.29375-1-.74792C3.37708.95 3.69375.370833 4.24583.208333 4.71875.0708333 5.21042 0 5.70833 0h.91875c.575 0 1.04167.466667 1.04167 1.04167 0 .575-.46458 1.04166-1.04167 1.04166h-.91875c-.3 0-.59375.04167-.87708.125-.09792.02917-.19583.04167-.29375.04167Zm21.0437-.16667H23.475c-.575 0-1.0417-.46666-1.0417-1.04166C22.4333.466667 22.9 0 23.475 0h2.1062c.575 0 1.0417.466667 1.0417 1.04167 0 .575-.4667 1.04166-1.0417 1.04166Zm-6.3187 0h-2.1042c-.575 0-1.0416-.46666-1.0416-1.04166C16.1167.466667 16.5812 0 17.1583 0h2.1063c.575 0 1.0416.466667 1.0416 1.04167 0 .575-.4666 1.04166-1.0437 1.04166Zm-6.3167 0h-2.1062c-.575 0-1.04168-.46666-1.04168-1.04166C9.79792.466667 10.2646 0 10.8396 0h2.1062c.575 0 1.0417.466667 1.0417 1.04167 0 .575-.4667 1.04166-1.0417 1.04166ZM30.7057 16.668c-.575 0-1.0416-.4667-1.0416-1.0417v-1.0417c0-.575.4666-1.0416 1.0416-1.0416.575 0 1.0417.4666 1.0417 1.0416v1.0417c0 .575-.4667 1.0417-1.0417 1.0417Z"/><path d="M26.6459 37.4999h-4.2708c-2.8709 0-5.2084-2.3375-5.2084-5.2083v-3.7354l-.9334-.9334c-.6146-.6125-.9521-1.4312-.9521-2.3 0-.8687.3375-1.6854.9521-2.3.5084-.5083 1.1563-.827 1.8584-.9229-.0625-.9062.2521-1.8332.9437-2.5249.7229-.7229 1.7604-1.0604 2.7543-.9208.1185-.6167.4146-1.2063.8917-1.6834.875-.875 2.2333-1.1687 3.3687-.7729.1521-.4791.4188-.9312.7979-1.3104 1.2667-1.2667 3.3313-1.2667 4.5979 0l3.2292 3.2292c2.1438 2.1458 3.325 4.9978 3.325 8.0291 0 6.2604-5.0937 11.3541-11.3542 11.3541ZM19.25 30.6395v1.6521c0 1.7229 1.4021 3.125 3.1251 3.125h4.2708c5.1125 0 9.2709-4.1583 9.2709-9.2708 0-2.475-.9648-4.8042-2.7148-6.5541l-3.229-3.2292c-.4562-.4562-1.1958-.4562-1.6521 0-.2208.2188-.3437.5125-.3437.825s.1206.6063.3414.825c.2042.2042.3065.4708.3065.7375 0 .2667-.1021.5333-.3042.7375-.4062.4063-1.0666.4063-1.4729 0l-1.0416-1.0417c-.4417-.4416-1.2105-.4416-1.6521 0-.4563.4563-.4563 1.1959 0 1.6521l1.0416 1.0416c.2021.2021.3042.4688.3042.7354 0 .2667-.1021.5334-.3042.7375-.4062.4063-1.0666.4063-1.4729 0l-1.5625-1.5625c-.4416-.4416-1.2105-.4416-1.6522 0-.4562.4563-.4562 1.1959 0 1.6521l2.6043 2.6042c.2021.2021.3042.4687.3042.7354 0 .2667-.1021.5333-.3042.7375-.4062.4062-1.0667.4062-1.4729 0l-2.2814-2.2813c-.4416-.4416-1.2104-.4416-1.6521 0-.2208.2209-.3416.5146-.3416.825 0 .3105.1208.6063.3416.825l5.4064 5.4063c.2021.2042.3042.4708.3042.7375 0 .2667-.1021.5333-.3042.7375-.4062.4062-1.0667.4062-1.4729 0L19.25 30.6395Z"/></g></g><defs><clipPath id="a"><path fill="#fff" d="M.5 0h50v50H.5z"/></clipPath></defs></svg>