<svg xmlns="http://www.w3.org/2000/svg" width="14" height="14" fill="none" viewBox="0 0 14 14"><path fill="#727272" d="M10.0625 5.25V3.81063c-.0012-.77823-.31082-1.52424-.8611-2.07453C8.65111 1.18582 7.9051.876157 7.12688.875h-.25375c-.77823.001157-1.52424.31082-2.07453.8611-.55028.55029-.85994 1.2963-.8611 2.07453V5.25c-.3481 0-.68194.13828-.92808.38442-.24614.24614-.38442.57998-.38442.92808v4.0687c.00116.6611.26426 1.2947.73168 1.7621.46742.4674 1.10104.7305 1.76207.7317h3.7625c.66103-.0012 1.29465-.2643 1.76205-.7317.4674-.4674.7305-1.101.7317-1.7621V6.5625c0-.3481-.1383-.68194-.3844-.92808-.2462-.24614-.58-.38442-.9281-.38442Zm-5.25-1.43937c0-.54652.2171-1.07064.60354-1.45709.38645-.38644.91057-.60354 1.45709-.60354h.25375c.54651 0 1.07064.2171 1.45708.60354.38644.38645.60354.91057.60354 1.45709V5.25h-4.375V3.81063Z"/><path fill="#D1D1D6" d="M7.4375 9.0649v1.435c0 .116-.04609.2273-.12814.3094-.08205.082-.19333.1281-.30936.1281-.11603 0-.22731-.0461-.30936-.1281-.08205-.0821-.12814-.1934-.12814-.3094v-1.435c-.16681-.09631-.29718-.24497-.37089-.42292-.07372-.17796-.08665-.37526-.03679-.56132.04985-.18605.1597-.35046.31251-.46772.15282-.11725.34005-.18081.53267-.18081.19262 0 .37985.06356.53267.18081.15281.11726.26266.28167.31252.46772.04985.18606.03692.38336-.03679.56132-.07372.17795-.20409.32661-.3709.42292Z"/></svg>