<svg xmlns="http://www.w3.org/2000/svg" width="20" height="19" fill="none" viewBox="0 0 20 19"><rect width="18.5" height="18.5" x=".75" y=".25" fill="#F9B744" rx="9.25"/><rect width="18.5" height="18.5" x=".75" y=".25" stroke="#F9B744" stroke-width=".5" rx="9.25"/><path fill="#fff" d="M5.57415 10.6675c-.1901-1.23562-.38019-2.47121-.57028-3.70684-.04216-.2739.2695-.46071.49118-.29443.59225.44418 1.18447.88834 1.77672 1.33253.195.14625.47282.09865.608-.10416l1.47916-2.21875c.15631-.23447.50081-.23447.65717 0l1.4791 2.21875c.1352.20281.413.25038.608.10416.5923-.44419 1.1845-.88835 1.7767-1.33253.2217-.16628.5334.02053.4912.29443-.19 1.23563-.3801 2.47122-.5702 3.70684H5.57415ZM13.372 12.7241H6.00312c-.23687 0-.4289-.192-.4289-.4289v-.9422h8.22668v.9422c0 .2369-.192.4289-.4289.4289Z"/></svg>