<svg xmlns="http://www.w3.org/2000/svg" width="16" height="17" fill="none" viewBox="0 0 16 17"><path fill="#000" d="M1.5 6a.5.5 0 0 0 .5-.5V3a.5.5 0 0 1 .5-.5h2.75a.5.5 0 1 0 0-1H2.5A1.5 1.5 0 0 0 1 3v2.5a.5.5 0 0 0 .5.5Zm12-4.5h-2.75a.5.5 0 0 0 0 1h2.75a.5.5 0 0 1 .5.5v2.5a.5.5 0 0 0 1 0V3a1.5 1.5 0 0 0-1.5-1.5Zm1 9.5a.5.5 0 0 0-.5.5V14a.5.5 0 0 1-.5.5h-2.75a.5.5 0 0 0 0 1h2.75A1.5 1.5 0 0 0 15 14v-2.5a.5.5 0 0 0-.5-.5Zm-9.25 3.5H2.5A.5.5 0 0 1 2 14v-2.5a.5.5 0 0 0-1 0V14a1.5 1.5 0 0 0 1.5 1.5h2.75a.5.5 0 0 0 0-1ZM14.5 8h-13a.5.5 0 1 0 0 1h13a.5.5 0 0 0 0-1Z"/></svg>