<svg xmlns="http://www.w3.org/2000/svg" width="18" height="18" fill="none" viewBox="0 0 26 26"><path fill="#fff" fill-rule="evenodd" d="m15.2602 19.0192.0204-5.2833 10.0063-.0017v4.3484c0 .9417-.1887 1.8742-.5555 2.7442-.3668.87-.9044 1.6605-1.5821 2.3264-.6777.6658-1.4822 1.1939-2.3677 1.5542-.8854.3603-1.8344.5457-2.7928.5456H9.38794c-.48864.0452-.98053.0452-1.46917 0h-.01063c-1.90881 0-3.73945-.7451-5.08919-2.0714C1.46921 21.8553.710938 20.0565.710938 18.1808V.710938H4.24316c1.71752 0 3.36468.670392 4.57915 1.863762 1.21449 1.19336 1.89679 2.81193 1.89679 4.4996v8.7645c0 3.437 4.5411 3.1804 4.5411 3.1804Zm7.2723 3.5299c1.2052-1.1843 1.8832-2.79 1.8853-4.4648v-3.4952h-8.2716l-.0177 4.4353c0 1.2071-.1239 2.7769-1.0904 4.1788-.3133.4524-.6937.8564-1.1284 1.1984h4.0791c1.7045-.0021 3.3385-.6683 4.5437-1.8525ZM16.9843 2.38775C18.0765 1.31462 19.5579.711687 21.1025.711688h4.1845V9.8658H15.278V6.43409c.0002-1.51776.614-2.9732 1.7063-4.04634Z" clip-rule="evenodd"/></svg>